# xmcd
#
# Track frame offsets:
#	150
#	34668
#	49328
#	61395
#	76476
#	86909
#	103143
#	114084
#	127804
#	142600
#	158985
#	172703
#	182428
#	200714
#	219244
#	235737
#
# Disc length: 3410 seconds
#
# Revision: 0
# Processed by: cddbd v1.5.1PL0 Copyright (c) Steve Scherf et al.
# Submitted via: dBpowerAMP V4.0
#
DISCID=ca0d5010
DTITLE=Starling - Tylko we Lwowie czesc 2
DYEAR=1900
DGENRE=
TTITLE0=Bal u weteranow
TTITLE1=O dwunastej godzinie
TTITLE2=Na budowi ludzi mrowi
TTITLE3=Tam na rogu na Janowskiej
TTITLE4=My dwaj oba cwaj
TTITLE5=Jak zarobim 200 zlotych
TTITLE6=Codziennie rano
TTITLE7=Sztajer
TTITLE8=Piekna Karolcia
TTITLE9=Wesele Manki pyszcz
TTITLE10=Moja gitara
TTITLE11=Sliczny gozdziki
TTITLE12=Ze studencikiem jestem ja
TTITLE13=Dali bracia
TTITLE14=W dzien deszczowy
TTITLE15=Ballada o pannie Mariannie
EXTD=
EXTT0=
EXTT1=
EXTT2=
EXTT3=
EXTT4=
EXTT5=
EXTT6=
EXTT7=
EXTT8=
EXTT9=
EXTT10=
EXTT11=
EXTT12=
EXTT13=
EXTT14=
EXTT15=
PLAYORDER=
